<mxfile host="app.diagrams.net" modified="2024-07-10T07:26:18.981Z" agent="Mozilla/5.0 (Windows NT 10.0; Win64; x64) AppleWebKit/537.36 (KHTML, like Gecko) Chrome/126.0.0.0 Safari/537.36" etag="7PET9rJmOc5lsAIAcNlg" version="24.6.4" type="device">
  <diagram name="Page-1" id="C_5CEdmqBRg0b65hhoHE">
    <mxGraphModel dx="1909" dy="1035" grid="1" gridSize="10" guides="1" tooltips="1" connect="1" arrows="1" fold="1" page="1" pageScale="1" pageWidth="850" pageHeight="1100" math="0" shadow="0">
      <root>
        <mxCell id="0" />
        <mxCell id="1" parent="0" />
        <mxCell id="UkBherKeM8_uy99EuzJo-2" style="edgeStyle=orthogonalEdgeStyle;rounded=0;orthogonalLoop=1;jettySize=auto;html=1;exitX=0.5;exitY=1;exitDx=0;exitDy=0;" edge="1" parent="1" source="UkBherKeM8_uy99EuzJo-1">
          <mxGeometry relative="1" as="geometry">
            <mxPoint x="120" y="170" as="targetPoint" />
          </mxGeometry>
        </mxCell>
        <mxCell id="UkBherKeM8_uy99EuzJo-1" value="START" style="ellipse;whiteSpace=wrap;html=1;" vertex="1" parent="1">
          <mxGeometry x="60" y="40" width="120" height="80" as="geometry" />
        </mxCell>
        <mxCell id="UkBherKeM8_uy99EuzJo-4" style="edgeStyle=orthogonalEdgeStyle;rounded=0;orthogonalLoop=1;jettySize=auto;html=1;exitX=0.5;exitY=1;exitDx=0;exitDy=0;" edge="1" parent="1" source="UkBherKeM8_uy99EuzJo-3">
          <mxGeometry relative="1" as="geometry">
            <mxPoint x="120" y="300" as="targetPoint" />
          </mxGeometry>
        </mxCell>
        <mxCell id="UkBherKeM8_uy99EuzJo-3" value="Prepare&lt;div&gt;&amp;nbsp;Ingredients&lt;/div&gt;" style="shape=parallelogram;perimeter=parallelogramPerimeter;whiteSpace=wrap;html=1;fixedSize=1;" vertex="1" parent="1">
          <mxGeometry x="60" y="170" width="120" height="60" as="geometry" />
        </mxCell>
        <mxCell id="UkBherKeM8_uy99EuzJo-6" style="edgeStyle=orthogonalEdgeStyle;rounded=0;orthogonalLoop=1;jettySize=auto;html=1;exitX=0.5;exitY=1;exitDx=0;exitDy=0;" edge="1" parent="1" source="UkBherKeM8_uy99EuzJo-5">
          <mxGeometry relative="1" as="geometry">
            <mxPoint x="120" y="430" as="targetPoint" />
          </mxGeometry>
        </mxCell>
        <mxCell id="UkBherKeM8_uy99EuzJo-5" value="Wash the Chicken" style="rounded=1;whiteSpace=wrap;html=1;" vertex="1" parent="1">
          <mxGeometry x="60" y="300" width="120" height="60" as="geometry" />
        </mxCell>
        <mxCell id="UkBherKeM8_uy99EuzJo-8" style="edgeStyle=orthogonalEdgeStyle;rounded=0;orthogonalLoop=1;jettySize=auto;html=1;exitX=0.5;exitY=1;exitDx=0;exitDy=0;" edge="1" parent="1" source="UkBherKeM8_uy99EuzJo-7">
          <mxGeometry relative="1" as="geometry">
            <mxPoint x="120" y="560" as="targetPoint" />
          </mxGeometry>
        </mxCell>
        <mxCell id="UkBherKeM8_uy99EuzJo-7" value="Marinate the chicken" style="rounded=1;whiteSpace=wrap;html=1;" vertex="1" parent="1">
          <mxGeometry x="60" y="430" width="120" height="60" as="geometry" />
        </mxCell>
        <mxCell id="UkBherKeM8_uy99EuzJo-10" style="edgeStyle=orthogonalEdgeStyle;rounded=0;orthogonalLoop=1;jettySize=auto;html=1;exitX=1;exitY=0.5;exitDx=0;exitDy=0;" edge="1" parent="1" source="UkBherKeM8_uy99EuzJo-9">
          <mxGeometry relative="1" as="geometry">
            <mxPoint x="260" y="590" as="targetPoint" />
          </mxGeometry>
        </mxCell>
        <mxCell id="UkBherKeM8_uy99EuzJo-9" value="ibutang ang kalha sa kalayo" style="rounded=1;whiteSpace=wrap;html=1;" vertex="1" parent="1">
          <mxGeometry x="60" y="560" width="120" height="60" as="geometry" />
        </mxCell>
        <mxCell id="UkBherKeM8_uy99EuzJo-16" style="edgeStyle=orthogonalEdgeStyle;rounded=0;orthogonalLoop=1;jettySize=auto;html=1;exitX=0.5;exitY=1;exitDx=0;exitDy=0;" edge="1" parent="1" source="UkBherKeM8_uy99EuzJo-11">
          <mxGeometry relative="1" as="geometry">
            <mxPoint x="400" y="690" as="targetPoint" />
          </mxGeometry>
        </mxCell>
        <mxCell id="UkBherKeM8_uy99EuzJo-11" value="if init na" style="rhombus;whiteSpace=wrap;html=1;" vertex="1" parent="1">
          <mxGeometry x="260" y="537.5" width="110" height="105" as="geometry" />
        </mxCell>
        <mxCell id="UkBherKeM8_uy99EuzJo-21" style="edgeStyle=orthogonalEdgeStyle;rounded=0;orthogonalLoop=1;jettySize=auto;html=1;exitX=1;exitY=0.5;exitDx=0;exitDy=0;entryX=0;entryY=0.5;entryDx=0;entryDy=0;" edge="1" parent="1" source="UkBherKeM8_uy99EuzJo-13" target="UkBherKeM8_uy99EuzJo-17">
          <mxGeometry relative="1" as="geometry" />
        </mxCell>
        <mxCell id="UkBherKeM8_uy99EuzJo-13" value="wait lang" style="rounded=1;whiteSpace=wrap;html=1;" vertex="1" parent="1">
          <mxGeometry x="140" y="690" width="120" height="60" as="geometry" />
        </mxCell>
        <mxCell id="UkBherKeM8_uy99EuzJo-14" style="edgeStyle=orthogonalEdgeStyle;rounded=0;orthogonalLoop=1;jettySize=auto;html=1;exitX=0.5;exitY=1;exitDx=0;exitDy=0;entryX=0.56;entryY=-0.043;entryDx=0;entryDy=0;entryPerimeter=0;" edge="1" parent="1" source="UkBherKeM8_uy99EuzJo-11" target="UkBherKeM8_uy99EuzJo-13">
          <mxGeometry relative="1" as="geometry" />
        </mxCell>
        <mxCell id="UkBherKeM8_uy99EuzJo-23" style="edgeStyle=orthogonalEdgeStyle;rounded=0;orthogonalLoop=1;jettySize=auto;html=1;exitX=0.5;exitY=1;exitDx=0;exitDy=0;" edge="1" parent="1" source="UkBherKeM8_uy99EuzJo-17">
          <mxGeometry relative="1" as="geometry">
            <mxPoint x="389.81818181818176" y="800" as="targetPoint" />
          </mxGeometry>
        </mxCell>
        <mxCell id="UkBherKeM8_uy99EuzJo-17" value="Mag butang nag oil sa kalha" style="rounded=1;whiteSpace=wrap;html=1;" vertex="1" parent="1">
          <mxGeometry x="330" y="690" width="120" height="60" as="geometry" />
        </mxCell>
        <mxCell id="UkBherKeM8_uy99EuzJo-19" value="NO" style="text;html=1;align=center;verticalAlign=middle;resizable=0;points=[];autosize=1;strokeColor=none;fillColor=none;" vertex="1" parent="1">
          <mxGeometry x="230" y="638" width="40" height="30" as="geometry" />
        </mxCell>
        <mxCell id="UkBherKeM8_uy99EuzJo-20" value="YES" style="text;html=1;align=center;verticalAlign=middle;resizable=0;points=[];autosize=1;strokeColor=none;fillColor=none;" vertex="1" parent="1">
          <mxGeometry x="325" y="638" width="50" height="30" as="geometry" />
        </mxCell>
        <mxCell id="UkBherKeM8_uy99EuzJo-28" style="edgeStyle=orthogonalEdgeStyle;rounded=0;orthogonalLoop=1;jettySize=auto;html=1;exitX=0.5;exitY=1;exitDx=0;exitDy=0;entryX=0.5;entryY=0;entryDx=0;entryDy=0;" edge="1" parent="1" source="UkBherKeM8_uy99EuzJo-25" target="UkBherKeM8_uy99EuzJo-26">
          <mxGeometry relative="1" as="geometry" />
        </mxCell>
        <mxCell id="UkBherKeM8_uy99EuzJo-29" style="edgeStyle=orthogonalEdgeStyle;rounded=0;orthogonalLoop=1;jettySize=auto;html=1;exitX=0.5;exitY=1;exitDx=0;exitDy=0;" edge="1" parent="1" source="UkBherKeM8_uy99EuzJo-25" target="UkBherKeM8_uy99EuzJo-27">
          <mxGeometry relative="1" as="geometry" />
        </mxCell>
        <mxCell id="UkBherKeM8_uy99EuzJo-25" value="if init na" style="rhombus;whiteSpace=wrap;html=1;" vertex="1" parent="1">
          <mxGeometry x="350" y="800" width="80" height="80" as="geometry" />
        </mxCell>
        <mxCell id="UkBherKeM8_uy99EuzJo-32" style="edgeStyle=orthogonalEdgeStyle;rounded=0;orthogonalLoop=1;jettySize=auto;html=1;exitX=1;exitY=0.5;exitDx=0;exitDy=0;entryX=0;entryY=0.5;entryDx=0;entryDy=0;" edge="1" parent="1" source="UkBherKeM8_uy99EuzJo-26" target="UkBherKeM8_uy99EuzJo-27">
          <mxGeometry relative="1" as="geometry" />
        </mxCell>
        <mxCell id="UkBherKeM8_uy99EuzJo-26" value="wait lang" style="rounded=1;whiteSpace=wrap;html=1;" vertex="1" parent="1">
          <mxGeometry x="240" y="930" width="120" height="60" as="geometry" />
        </mxCell>
        <mxCell id="UkBherKeM8_uy99EuzJo-34" style="edgeStyle=orthogonalEdgeStyle;rounded=0;orthogonalLoop=1;jettySize=auto;html=1;exitX=1;exitY=0.5;exitDx=0;exitDy=0;" edge="1" parent="1" source="UkBherKeM8_uy99EuzJo-27">
          <mxGeometry relative="1" as="geometry">
            <mxPoint x="610" y="960.4117647058824" as="targetPoint" />
          </mxGeometry>
        </mxCell>
        <mxCell id="UkBherKeM8_uy99EuzJo-27" value="ibutang na ang chicken" style="rounded=1;whiteSpace=wrap;html=1;" vertex="1" parent="1">
          <mxGeometry x="420" y="930" width="120" height="60" as="geometry" />
        </mxCell>
        <mxCell id="UkBherKeM8_uy99EuzJo-30" value="NO" style="text;html=1;align=center;verticalAlign=middle;resizable=0;points=[];autosize=1;strokeColor=none;fillColor=none;" vertex="1" parent="1">
          <mxGeometry x="320" y="878" width="40" height="30" as="geometry" />
        </mxCell>
        <mxCell id="UkBherKeM8_uy99EuzJo-31" value="YES" style="text;html=1;align=center;verticalAlign=middle;resizable=0;points=[];autosize=1;strokeColor=none;fillColor=none;" vertex="1" parent="1">
          <mxGeometry x="415" y="878" width="50" height="30" as="geometry" />
        </mxCell>
        <mxCell id="UkBherKeM8_uy99EuzJo-38" style="edgeStyle=orthogonalEdgeStyle;rounded=0;orthogonalLoop=1;jettySize=auto;html=1;exitX=0.5;exitY=0;exitDx=0;exitDy=0;" edge="1" parent="1" source="UkBherKeM8_uy99EuzJo-37">
          <mxGeometry relative="1" as="geometry">
            <mxPoint x="669.181818181818" y="859.9999999999998" as="targetPoint" />
          </mxGeometry>
        </mxCell>
        <mxCell id="UkBherKeM8_uy99EuzJo-37" value="if luto na kuhaon na sa kalha" style="rounded=1;whiteSpace=wrap;html=1;" vertex="1" parent="1">
          <mxGeometry x="610" y="930" width="120" height="60" as="geometry" />
        </mxCell>
        <mxCell id="UkBherKeM8_uy99EuzJo-39" value="END" style="ellipse;whiteSpace=wrap;html=1;" vertex="1" parent="1">
          <mxGeometry x="610" y="770" width="120" height="80" as="geometry" />
        </mxCell>
      </root>
    </mxGraphModel>
  </diagram>
</mxfile>
